<svg viewBox="0 0 480 360" xmlns="http://www.w3.org/2000/svg">
  <rect width="480" height="360" fill="#16283D" />
  <g stroke="#5C93BE" stroke-width="1" opacity="0.22"><line x1="0" y1="0" x2="0" y2="360" /><line x1="24" y1="0" x2="24" y2="360" /><line x1="48" y1="0" x2="48" y2="360" /><line x1="72" y1="0" x2="72" y2="360" /><line x1="96" y1="0" x2="96" y2="360" /><line x1="120" y1="0" x2="120" y2="360" /><line x1="144" y1="0" x2="144" y2="360" /><line x1="168" y1="0" x2="168" y2="360" /><line x1="192" y1="0" x2="192" y2="360" /><line x1="216" y1="0" x2="216" y2="360" /><line x1="240" y1="0" x2="240" y2="360" /><line x1="264" y1="0" x2="264" y2="360" /><line x1="288" y1="0" x2="288" y2="360" /><line x1="312" y1="0" x2="312" y2="360" /><line x1="336" y1="0" x2="336" y2="360" /><line x1="360" y1="0" x2="360" y2="360" /><line x1="384" y1="0" x2="384" y2="360" /><line x1="408" y1="0" x2="408" y2="360" /><line x1="432" y1="0" x2="432" y2="360" /><line x1="456" y1="0" x2="456" y2="360" /><line x1="480" y1="0" x2="480" y2="360" /><line x1="0" y1="0" x2="480" y2="0" /><line x1="0" y1="24" x2="480" y2="24" /><line x1="0" y1="48" x2="480" y2="48" /><line x1="0" y1="72" x2="480" y2="72" /><line x1="0" y1="96" x2="480" y2="96" /><line x1="0" y1="120" x2="480" y2="120" /><line x1="0" y1="144" x2="480" y2="144" /><line x1="0" y1="168" x2="480" y2="168" /><line x1="0" y1="192" x2="480" y2="192" /><line x1="0" y1="216" x2="480" y2="216" /><line x1="0" y1="240" x2="480" y2="240" /><line x1="0" y1="264" x2="480" y2="264" /><line x1="0" y1="288" x2="480" y2="288" /><line x1="0" y1="312" x2="480" y2="312" /><line x1="0" y1="336" x2="480" y2="336" /><line x1="0" y1="360" x2="480" y2="360" /></g>
  <rect x="16" y="16" width="448" height="328" fill="none" stroke="#D9622B" stroke-width="1.5" opacity="0.55" />
  <line x1="16" y1="16" x2="464" y2="344" stroke="#5C93BE" stroke-width="1" opacity="0.35" />
  <line x1="464" y1="16" x2="16" y2="344" stroke="#5C93BE" stroke-width="1" opacity="0.35" />
  <text x="50%" y="174" text-anchor="middle" fill="#EDF0F2" font-family="monospace" font-size="17" letter-spacing="1">BHANU, GANDAKI</text>
  <text x="50%" y="196" text-anchor="middle" fill="#8FB2CC" font-family="monospace" font-size="11" letter-spacing="2">PROJECT PHOTO PLACEHOLDER</text>
</svg>